<?xml version="1.0" encoding="UTF-8" standalone="no"?>
<svg
   width="6.544929mm"
   height="6.544929mm"
   viewBox="0 0 6.544929 6.544929"
   version="1.1"
   id="svg8"
   inkscape:version="1.2.1 (9c6d41e410, 2022-07-14)"
   sodipodi:docname="download_min.svg"
   xml:space="preserve"
   xmlns:inkscape="http://www.inkscape.org/namespaces/inkscape"
   xmlns:sodipodi="http://sodipodi.sourceforge.net/DTD/sodipodi-0.dtd"
   xmlns="http://www.w3.org/2000/svg"
   xmlns:svg="http://www.w3.org/2000/svg"
   xmlns:rdf="http://www.w3.org/1999/02/22-rdf-syntax-ns#"
   xmlns:cc="http://creativecommons.org/ns#"
   xmlns:dc="http://purl.org/dc/elements/1.1/"><defs
     id="defs2" /><sodipodi:namedview
     id="base"
     pagecolor="#ffffff"
     bordercolor="#666666"
     borderopacity="1.0"
     inkscape:pageopacity="0.0"
     inkscape:pageshadow="2"
     inkscape:zoom="15.839192"
     inkscape:cx="12.058696"
     inkscape:cy="23.549181"
     inkscape:document-units="mm"
     inkscape:current-layer="layer1"
     inkscape:document-rotation="0"
     showgrid="false"
     inkscape:window-width="2560"
     inkscape:window-height="1361"
     inkscape:window-x="-9"
     inkscape:window-y="-9"
     inkscape:window-maximized="1"
     fit-margin-top="0"
     fit-margin-left="0"
     fit-margin-right="0"
     fit-margin-bottom="0"
     inkscape:showpageshadow="0"
     inkscape:pagecheckerboard="0"
     inkscape:deskcolor="#d1d1d1" /><metadata
     id="metadata5"><rdf:RDF><cc:Work
         rdf:about=""><dc:format>image/svg+xml</dc:format><dc:type
           rdf:resource="http://purl.org/dc/dcmitype/StillImage" /></cc:Work></rdf:RDF></metadata><g
     inkscape:label="Layer 1"
     inkscape:groupmode="layer"
     id="layer1"
     transform="translate(-81.451977,-133.30226)"><path
       id="path856"
       style="fill:#ffffff;stroke-width:1"
       d="m 84.724447,139.07759 c -0.08389,0 -0.273267,-0.15736 -0.684163,-0.56826 -0.473304,-0.4733 -0.568254,-0.59241 -0.568254,-0.71295 0,-0.18003 0.07663,-0.26023 0.248376,-0.26023 0.09679,0 0.211622,0.0766 0.423932,0.28309 l 0.29109,0.28309 v -1.35619 c 0,-1.14954 0.01143,-1.3726 0.07498,-1.46334 0.04804,-0.0686 0.124955,-0.10698 0.214036,-0.10698 0.276783,0 0.289019,0.0672 0.289019,1.58688 v 1.37275 l 0.302379,-0.29965 c 0.210244,-0.20837 0.339422,-0.29965 0.423933,-0.29965 0.160909,0 0.237086,0.0836 0.237086,0.26023 0,0.12054 -0.09486,0.23965 -0.56816,0.71295 -0.410896,0.4109 -0.600372,0.56826 -0.684257,0.56826 z m -1.847767,-2.79621 c -0.08145,0.002 -0.173209,-0.0245 -0.231724,-0.0774 -0.07439,-0.0673 -0.08816,-0.1562 -0.08816,-0.57192 0,-0.53953 0.06628,-0.80223 0.269733,-1.06896 0.142078,-0.18627 0.418456,-0.37264 0.652269,-0.43993 0.08903,-0.0256 0.640182,-0.0485 1.224852,-0.0509 1.285036,-0.005 1.457241,0.0305 1.801008,0.37426 0.304505,0.30451 0.38743,0.5598 0.38743,1.19202 0,0.38465 -0.01667,0.51051 -0.07564,0.56948 -0.08735,0.0873 -0.227325,0.0974 -0.360992,0.0259 -0.08218,-0.044 -0.09334,-0.10509 -0.09427,-0.51783 -0.0013,-0.55435 -0.09572,-0.8204 -0.345375,-0.97262 -0.147777,-0.0901 -0.241137,-0.0972 -1.285628,-0.0974 -1.059692,-1.7e-4 -1.136027,0.006 -1.289768,0.10086 -0.255037,0.15762 -0.321971,0.33473 -0.344434,0.91061 -0.01085,0.27818 -0.04173,0.53288 -0.06858,0.566 -0.03027,0.0373 -0.08737,0.0562 -0.150719,0.0579 z" /></g></svg>
