<?xml version="1.0" encoding="UTF-8" standalone="no"?>
<svg
   xmlns:dc="http://purl.org/dc/elements/1.1/"
   xmlns:cc="http://creativecommons.org/ns#"
   xmlns:rdf="http://www.w3.org/1999/02/22-rdf-syntax-ns#"
   xmlns:svg="http://www.w3.org/2000/svg"
   xmlns="http://www.w3.org/2000/svg"
   xmlns:sodipodi="http://sodipodi.sourceforge.net/DTD/sodipodi-0.dtd"
   xmlns:inkscape="http://www.inkscape.org/namespaces/inkscape"
   width="6.544929mm"
   height="6.544929mm"
   viewBox="0 0 6.544929 6.544929"
   version="1.1"
   id="svg8"
   inkscape:version="1.0.2-2 (e86c870879, 2021-01-15)"
   sodipodi:docname="favicon.svg"
   inkscape:export-filename="C:\xampp\htdocs\inventario\icons\favicon.png"
   inkscape:export-xdpi="458"
   inkscape:export-ydpi="458">
  <defs
     id="defs2" />
  <sodipodi:namedview
     id="base"
     pagecolor="#ffffff"
     bordercolor="#666666"
     borderopacity="1.0"
     inkscape:pageopacity="0.0"
     inkscape:pageshadow="2"
     inkscape:zoom="11.2"
     inkscape:cx="6.3716323"
     inkscape:cy="16.096846"
     inkscape:document-units="mm"
     inkscape:current-layer="layer1"
     inkscape:document-rotation="0"
     showgrid="false"
     inkscape:window-width="1366"
     inkscape:window-height="705"
     inkscape:window-x="-8"
     inkscape:window-y="-8"
     inkscape:window-maximized="1"
     fit-margin-top="0"
     fit-margin-left="0"
     fit-margin-right="0"
     fit-margin-bottom="0"
     inkscape:showpageshadow="0"
     inkscape:pagecheckerboard="0"
     inkscape:deskcolor="#d1d1d1"
     inkscape:snap-bbox="true"
     inkscape:snap-page="true"
     inkscape:snap-global="false" />
  <metadata
     id="metadata5">
    <rdf:RDF>
      <cc:Work
         rdf:about="">
        <dc:format>image/svg+xml</dc:format>
        <dc:type
           rdf:resource="http://purl.org/dc/dcmitype/StillImage" />
        <dc:title />
      </cc:Work>
    </rdf:RDF>
  </metadata>
  <g
     inkscape:label="Layer 1"
     inkscape:groupmode="layer"
     id="layer1"
     transform="translate(-81.451977,-133.30226)">
    <rect
       style="fill:#3f4140;fill-opacity:1;fill-rule:evenodd;stroke:#000000;stroke-width:0;stroke-linecap:round;stroke-miterlimit:4;stroke-dasharray:none;paint-order:stroke fill markers"
       id="rect910"
       width="6.544929"
       height="6.544929"
       x="81.451981"
       y="133.30226" />
    <rect
       style="fill:none;fill-rule:evenodd;stroke:#bdbdbd;stroke-width:0.265;stroke-linecap:round;stroke-miterlimit:4;stroke-dasharray:none;paint-order:stroke fill markers;stroke-opacity:1"
       id="rect9"
       width="3.6310666"
       height="4.8492336"
       x="82.908913"
       y="134.15012"
       rx="0.16536458"
       ry="0.16536458" />
    <path
       style="fill:#2ca25f;fill-opacity:1;fill-rule:evenodd;stroke:#000000;stroke-width:0;stroke-linecap:round;stroke-miterlimit:4;stroke-dasharray:none;paint-order:stroke fill markers"
       d="m 84.842236,136.17705 c 0,-0.0103 0.04093,-0.0876 0.09094,-0.17306 0.140178,-0.23916 0.116062,-0.26042 -0.128388,-0.11321 l -0.151325,0.0911 0.01409,-0.10589 c 0.03147,-0.23467 0.219727,-0.50238 0.447403,-0.63626 0.127989,-0.0753 0.375411,-0.14182 0.527394,-0.14182 h 0.113747 l -0.01822,0.11038 c -0.0099,0.0607 -0.04713,0.20255 -0.08247,0.31529 -0.05046,0.16092 -0.09004,0.23245 -0.184548,0.33347 -0.13699,0.14638 -0.27961,0.23662 -0.441985,0.27942 -0.06164,0.0152 -0.12886,0.036 -0.149395,0.0439 -0.0206,0.008 -0.03734,0.006 -0.03734,-0.004 z"
       id="path890" />
    <path
       style="fill:#238b45;fill-opacity:1;stroke:none;stroke-width:0.264583px;stroke-linecap:butt;stroke-linejoin:miter;stroke-opacity:1"
       d="m 85.049881,136.89538 0.622237,-0.17122 0.03758,0.34244 -0.233861,0.39255 -0.421785,0.20463 -0.263093,-0.1044 0.01253,-0.35915 z"
       id="path915" />
    <path
       style="fill:#2ca25f;fill-opacity:1;stroke:none;stroke-width:0.264583px;stroke-linecap:butt;stroke-linejoin:miter;stroke-opacity:1"
       d="m 84.431816,137.82456 -0.622237,-0.17122 -0.03758,0.34244 0.233861,0.39255 0.421785,0.20463 0.263093,-0.1044 -0.01253,-0.35915 z"
       id="path915-3" />
    <path
       style="fill:#238b45;fill-opacity:1;stroke:none;stroke-width:0.264583px;stroke-linecap:butt;stroke-linejoin:miter;stroke-opacity:1"
       d="m 84.406759,135.2855 -0.622237,-0.17122 -0.03758,0.34244 0.233861,0.39255 0.421785,0.20463 0.263093,-0.1044 -0.01253,-0.35915 z"
       id="path915-3-8" />
    <path
       id="path881"
       style="fill:#bdbdbd;fill-opacity:1;stroke-width:0;stroke-miterlimit:4;stroke-dasharray:none"
       d="m 85.575769,135.05641 c -0.09617,7.1e-4 -0.206542,0.012 -0.282647,0.0322 -0.236106,0.0628 -0.430522,0.21834 -0.518386,0.41458 l -0.03989,0.0891 -0.06829,-0.13362 c -0.133457,-0.26095 -0.433861,-0.41191 -0.792919,-0.39853 l -0.184906,0.007 1.86e-4,0.22174 c 4.02e-4,0.52732 0.240176,0.78617 0.810925,0.87539 l 0.08753,0.0137 v 0.84165 0.84165 l -0.08511,-0.0748 c -0.04682,-0.0411 -0.130187,-0.0941 -0.185271,-0.11766 -0.195292,-0.0837 -0.554782,-0.12161 -0.611887,-0.0645 -0.01655,0.0166 -0.02793,0.0953 -0.02776,0.19256 8.57e-4,0.51328 0.284758,0.84109 0.77254,0.89207 l 0.137495,0.0144 v 0.12724 0.12723 l 0.299607,7.1e-4 c 0.0031,-0.10576 0.0039,-0.26319 0.0039,-0.50981 v -0.68596 h 0.07677 c 0.110408,0 0.338628,-0.0636 0.435415,-0.12132 0.256397,-0.15291 0.398123,-0.44222 0.398123,-0.81266 0,-0.1602 -0.02716,-0.18661 -0.191016,-0.186 -0.245293,7.2e-4 -0.525252,0.0983 -0.666775,0.23191 -0.02888,0.0273 -0.053,0.0413 -0.05361,0.0312 -0.0046,-0.0772 0.0049,-0.71855 0.01076,-0.72444 0.0041,-0.004 0.07452,-0.0183 0.156459,-0.0314 0.289065,-0.0464 0.527007,-0.20105 0.637189,-0.41412 0.08966,-0.17338 0.140263,-0.59148 0.079,-0.65274 -0.01922,-0.0192 -0.101185,-0.0281 -0.197352,-0.027 z m -1.719274,0.17843 0.132115,0.0136 c 0.327936,0.0339 0.511384,0.20192 0.585446,0.53639 l 0.01422,0.0643 -0.118301,-0.0729 c -0.06509,-0.0401 -0.123817,-0.0673 -0.13052,-0.0606 -0.0067,0.006 0.01291,0.0525 0.04363,0.10189 0.03071,0.0493 0.06359,0.10289 0.07308,0.11894 0.02049,0.0347 0.01347,0.0343 -0.135854,-0.006 -0.253727,-0.0696 -0.416225,-0.27157 -0.448316,-0.55718 z m 1.718134,0.008 c 0.03159,0.001 0.03975,0.0101 0.03975,0.0295 0,0.0774 -0.05409,0.2878 -0.09455,0.3678 -0.06041,0.11947 -0.213173,0.24841 -0.330105,0.27864 -0.05529,0.0143 -0.118904,0.0313 -0.14137,0.0378 -0.05484,0.0159 -0.05228,0.005 0.02891,-0.12304 0.03837,-0.0605 0.06562,-0.11413 0.06054,-0.11921 -0.01251,-0.0125 -0.154723,0.0607 -0.209433,0.10786 -0.04247,0.0366 -0.04353,0.0347 -0.02822,-0.0489 0.05588,-0.30522 0.265104,-0.49175 0.589048,-0.52518 0.03912,-0.004 0.06648,-0.006 0.08543,-0.005 z m 0.02808,1.59774 -0.0073,0.11396 c -0.01805,0.28056 -0.170262,0.4922 -0.403958,0.5616 -0.1844,0.0548 -0.190874,0.0502 -0.11388,-0.0804 0.03784,-0.0642 0.05783,-0.1167 0.0444,-0.1167 -0.01342,0 -0.07215,0.0279 -0.130474,0.0621 l -0.106039,0.0621 0.01614,-0.0796 c 0.03029,-0.14978 0.130262,-0.32477 0.219098,-0.3834 0.110309,-0.0728 0.249884,-0.12122 0.379022,-0.13152 z m -1.719866,0.92197 c 0.01048,0 0.08138,0.0114 0.157553,0.0254 0.198091,0.0363 0.351317,0.12616 0.422696,0.24795 0.0586,0.1 0.132578,0.30968 0.115338,0.32692 -0.0049,0.005 -0.05936,-0.0229 -0.1209,-0.0619 -0.06154,-0.039 -0.116906,-0.066 -0.123043,-0.0598 -0.0061,0.006 0.02156,0.0638 0.06155,0.12809 0.08079,0.12997 0.07851,0.13173 -0.112102,0.0864 -0.159029,-0.0378 -0.328777,-0.21748 -0.380571,-0.40273 -0.04212,-0.15067 -0.05198,-0.29021 -0.02052,-0.29021 z" />
  </g>
</svg>
