<?xml version="1.0" encoding="UTF-8" standalone="no"?>
<svg
   width="6.544929mm"
   height="6.544929mm"
   viewBox="0 0 6.544929 6.544929"
   version="1.1"
   id="svg8"
   inkscape:version="1.2.1 (9c6d41e410, 2022-07-14)"
   sodipodi:docname="picture_src.svg"
   xml:space="preserve"
   xmlns:inkscape="http://www.inkscape.org/namespaces/inkscape"
   xmlns:sodipodi="http://sodipodi.sourceforge.net/DTD/sodipodi-0.dtd"
   xmlns="http://www.w3.org/2000/svg"
   xmlns:svg="http://www.w3.org/2000/svg"
   xmlns:rdf="http://www.w3.org/1999/02/22-rdf-syntax-ns#"
   xmlns:cc="http://creativecommons.org/ns#"
   xmlns:dc="http://purl.org/dc/elements/1.1/"><defs
     id="defs2" /><sodipodi:namedview
     id="base"
     pagecolor="#ffffff"
     bordercolor="#666666"
     borderopacity="1.0"
     inkscape:pageopacity="0.0"
     inkscape:pageshadow="2"
     inkscape:zoom="11.2"
     inkscape:cx="5"
     inkscape:cy="0.625"
     inkscape:document-units="mm"
     inkscape:current-layer="layer1"
     inkscape:document-rotation="0"
     showgrid="false"
     inkscape:window-width="2560"
     inkscape:window-height="1361"
     inkscape:window-x="-9"
     inkscape:window-y="-9"
     inkscape:window-maximized="1"
     fit-margin-top="0"
     fit-margin-left="0"
     fit-margin-right="0"
     fit-margin-bottom="0"
     inkscape:showpageshadow="0"
     inkscape:pagecheckerboard="0"
     inkscape:deskcolor="#d1d1d1" /><metadata
     id="metadata5"><rdf:RDF><cc:Work
         rdf:about=""><dc:format>image/svg+xml</dc:format><dc:type
           rdf:resource="http://purl.org/dc/dcmitype/StillImage" /></cc:Work></rdf:RDF></metadata><g
     inkscape:label="Layer 1"
     inkscape:groupmode="layer"
     id="layer1"
     transform="translate(-81.451977,-133.30226)"><path
       id="path3130"
       style="fill:#f9f9f9;stroke-width:0.999994"
       d="m 84.751115,134.17656 c -1.276136,-0.018 -2.423181,0.99551 -2.423181,2.41691 0,1.16909 0.881276,2.18634 2.042015,2.35709 0.800514,0.11775 1.720874,-0.23431 2.206065,-0.84384 0.641663,-0.8061 0.723626,-1.89502 0.208843,-2.77343 -0.171949,-0.29341 -0.635407,-0.72367 -0.953772,-0.88541 -0.355203,-0.18044 -0.722653,-0.26627 -1.07997,-0.27132 z m -0.02054,1.27122 c 1.241666,0 1.285761,0.004 1.375545,0.10233 0.08213,0.0906 0.09452,0.19754 0.108225,0.93304 0.01648,0.88492 0.0038,1.00778 -0.116404,1.128 -0.06565,0.0656 -0.260421,0.0765 -1.380109,0.0765 -1.201122,0 -1.309955,-0.007 -1.3842,-0.089 -0.06909,-0.0763 -0.08055,-0.22223 -0.08055,-1.02253 0,-0.86855 0.0068,-0.94028 0.09738,-1.03089 0.09246,-0.0925 0.162246,-0.0974 1.380111,-0.0974 z m -1.25838,0.21912 -0.0137,0.65029 -0.0136,0.65031 0.117736,-0.0903 c 0.06474,-0.0496 0.21874,-0.17506 0.342173,-0.27866 l 0.22444,-0.18839 0.401136,0.34171 0.401138,0.3416 0.298999,-0.23785 0.298904,-0.23794 0.213026,0.16937 c 0.11715,0.0931 0.223983,0.16949 0.237373,0.16986 0.01339,3.6e-4 0.01339,-0.28981 0,-0.6447 l -0.02435,-0.64526 h -1.241643 z m 1.531891,0.17042 c 0.309559,0 0.475067,0.35735 0.270278,0.58364 -0.185115,0.20455 -0.609219,0.0464 -0.609219,-0.2272 0,-0.16293 0.183992,-0.35644 0.338941,-0.35644 z" /></g></svg>
