<?xml version="1.0" encoding="UTF-8" standalone="no"?>
<svg
   width="6.544929mm"
   height="6.544929mm"
   viewBox="0 0 6.544929 6.544929"
   version="1.1"
   id="svg8"
   inkscape:version="1.2.1 (9c6d41e410, 2022-07-14)"
   sodipodi:docname="picture.svg"
   xml:space="preserve"
   xmlns:inkscape="http://www.inkscape.org/namespaces/inkscape"
   xmlns:sodipodi="http://sodipodi.sourceforge.net/DTD/sodipodi-0.dtd"
   xmlns="http://www.w3.org/2000/svg"
   xmlns:svg="http://www.w3.org/2000/svg"
   xmlns:rdf="http://www.w3.org/1999/02/22-rdf-syntax-ns#"
   xmlns:cc="http://creativecommons.org/ns#"
   xmlns:dc="http://purl.org/dc/elements/1.1/"><defs
     id="defs2" /><sodipodi:namedview
     id="base"
     pagecolor="#ffffff"
     bordercolor="#666666"
     borderopacity="1.0"
     inkscape:pageopacity="0.0"
     inkscape:pageshadow="2"
     inkscape:zoom="22.4"
     inkscape:cx="25.580357"
     inkscape:cy="19.375"
     inkscape:document-units="mm"
     inkscape:current-layer="layer1"
     inkscape:document-rotation="0"
     showgrid="false"
     inkscape:window-width="2560"
     inkscape:window-height="1361"
     inkscape:window-x="-9"
     inkscape:window-y="-9"
     inkscape:window-maximized="1"
     fit-margin-top="0"
     fit-margin-left="0"
     fit-margin-right="0"
     fit-margin-bottom="0"
     inkscape:showpageshadow="0"
     inkscape:pagecheckerboard="0"
     inkscape:deskcolor="#d1d1d1" /><metadata
     id="metadata5"><rdf:RDF><cc:Work
         rdf:about=""><dc:format>image/svg+xml</dc:format><dc:type
           rdf:resource="http://purl.org/dc/dcmitype/StillImage" /></cc:Work></rdf:RDF></metadata><g
     inkscape:label="Layer 1"
     inkscape:groupmode="layer"
     id="layer1"
     transform="translate(-81.451977,-133.30226)"><path
       style="fill:#ffffff;stroke-width:0.999999"
       d="m 82.277073,139.16596 c -0.116647,-0.0233 -0.274188,-0.0868 -0.364226,-0.14685 -0.164741,-0.10989 -0.330236,-0.30937 -0.39082,-0.47109 -0.07382,-0.19705 -0.07002,-0.11494 -0.07002,-1.51207 0,-1.39632 -0.0037,-1.31519 0.06963,-1.51103 0.08451,-0.22558 0.335958,-0.47736 0.560722,-0.56146 0.182375,-0.0682 0.183855,-0.0684 0.708741,-0.0734 l 0.494839,-0.005 0.007,-0.0344 c 0.0038,-0.0189 0.02147,-0.12136 0.03917,-0.22769 0.04764,-0.28627 0.07796,-0.3564 0.20752,-0.47995 0.0844,-0.0805 0.17212,-0.12985 0.281327,-0.15829 0.108856,-0.0284 1.689826,-0.0284 1.798682,0 0.109207,0.0284 0.196924,0.0778 0.281327,0.15829 0.129559,0.12355 0.159881,0.19368 0.20752,0.47995 0.01769,0.10633 0.0354,0.20915 0.03934,0.2285 l 0.0072,0.0352 h 0.451963 c 0.484838,0 0.559554,0.007 0.725929,0.0676 0.126002,0.046 0.219211,0.1056 0.334051,0.21378 0.168132,0.15839 0.266694,0.33673 0.309917,0.56076 0.02675,0.13864 0.02675,2.47501 0,2.61365 -0.05328,0.27619 -0.219622,0.52502 -0.455183,0.68093 -0.08876,0.0588 -0.245397,0.11966 -0.368041,0.14313 -0.134252,0.0257 -4.74758,0.0249 -4.876548,-8.7e-4 z m 4.914061,-0.54685 c 0.116418,-0.0575 0.188938,-0.13161 0.245277,-0.25053 l 0.04048,-0.0854 v -1.24719 -1.24719 l -0.04048,-0.0854 c -0.05632,-0.11889 -0.128862,-0.193 -0.245234,-0.25054 l -0.09662,-0.0478 -0.531564,-0.006 -0.531565,-0.006 -0.08544,-0.0405 c -0.117877,-0.0558 -0.19341,-0.12922 -0.246591,-0.23955 -0.03554,-0.0737 -0.05019,-0.13083 -0.07745,-0.30199 -0.01849,-0.11609 -0.03926,-0.2293 -0.04616,-0.25159 -0.02606,-0.0842 0.0077,-0.081 -0.855504,-0.081 -0.863227,0 -0.829439,-0.003 -0.855504,0.081 -0.0069,0.0223 -0.02767,0.1355 -0.04616,0.25159 -0.02726,0.17116 -0.0419,0.22825 -0.07745,0.30199 -0.05318,0.11033 -0.128714,0.1837 -0.246592,0.23955 l -0.08544,0.0405 -0.531565,0.006 -0.531564,0.006 -0.09662,0.0478 c -0.116373,0.0575 -0.188913,0.13165 -0.245236,0.25054 l -0.04048,0.0854 v 1.24719 1.24719 l 0.04048,0.0854 c 0.02226,0.047 0.06399,0.11094 0.09271,0.14211 0.0565,0.0613 0.172565,0.12965 0.252063,0.14845 0.02937,0.007 1.008896,0.0109 2.397601,0.01 l 2.34794,-0.002 z m -2.77785,-0.19059 c -0.614762,-0.12896 -1.090284,-0.63044 -1.183365,-1.24798 -0.0491,-0.32577 0.0019,-0.62839 0.156411,-0.9273 0.258571,-0.50034 0.765759,-0.80728 1.333954,-0.80728 0.925594,0 1.628507,0.81809 1.490365,1.73458 -0.09371,0.62168 -0.571828,1.1227 -1.19177,1.24885 -0.17452,0.0355 -0.433932,0.0351 -0.605595,-8.7e-4 z m 0.544798,-0.51024 c 0.682922,-0.17465 0.981124,-0.9719 0.575921,-1.53974 -0.401636,-0.56285 -1.225802,-0.56285 -1.627438,0 -0.403704,0.56574 -0.10861,1.36126 0.570941,1.53916 0.133734,0.035 0.344947,0.0353 0.480576,5.8e-4 z m 1.822839,-1.83098 c -0.11448,-0.0786 -0.140984,-0.21094 -0.06394,-0.31935 0.05424,-0.0763 0.200724,-0.10054 0.280347,-0.0464 0.07435,0.0506 0.09581,0.0914 0.09581,0.18228 0,0.0621 -0.0062,0.0896 -0.02637,0.1166 -0.04665,0.0625 -0.09008,0.0861 -0.168528,0.0916 -0.06154,0.004 -0.08093,2e-4 -0.117318,-0.0248 z"
       id="path1813" /></g></svg>
