<?xml version="1.0" encoding="UTF-8" standalone="no"?>
<svg
   width="6.544929mm"
   height="6.544929mm"
   viewBox="0 0 6.544929 6.544929"
   version="1.1"
   id="svg8"
   inkscape:version="1.2.1 (9c6d41e410, 2022-07-14)"
   sodipodi:docname="save.svg"
   xml:space="preserve"
   xmlns:inkscape="http://www.inkscape.org/namespaces/inkscape"
   xmlns:sodipodi="http://sodipodi.sourceforge.net/DTD/sodipodi-0.dtd"
   xmlns="http://www.w3.org/2000/svg"
   xmlns:svg="http://www.w3.org/2000/svg"
   xmlns:rdf="http://www.w3.org/1999/02/22-rdf-syntax-ns#"
   xmlns:cc="http://creativecommons.org/ns#"
   xmlns:dc="http://purl.org/dc/elements/1.1/"><defs
     id="defs2" /><sodipodi:namedview
     id="base"
     pagecolor="#ffffff"
     bordercolor="#666666"
     borderopacity="1.0"
     inkscape:pageopacity="0.0"
     inkscape:pageshadow="2"
     inkscape:zoom="15.839192"
     inkscape:cx="11.364216"
     inkscape:cy="16.920055"
     inkscape:document-units="mm"
     inkscape:current-layer="layer1"
     inkscape:document-rotation="0"
     showgrid="false"
     inkscape:window-width="2560"
     inkscape:window-height="1361"
     inkscape:window-x="-9"
     inkscape:window-y="-9"
     inkscape:window-maximized="1"
     fit-margin-top="0"
     fit-margin-left="0"
     fit-margin-right="0"
     fit-margin-bottom="0"
     inkscape:showpageshadow="0"
     inkscape:pagecheckerboard="0"
     inkscape:deskcolor="#d1d1d1" /><metadata
     id="metadata5"><rdf:RDF><cc:Work
         rdf:about=""><dc:format>image/svg+xml</dc:format><dc:type
           rdf:resource="http://purl.org/dc/dcmitype/StillImage" /></cc:Work></rdf:RDF></metadata><g
     inkscape:label="Layer 1"
     inkscape:groupmode="layer"
     id="layer1"
     transform="translate(-81.451977,-133.30226)"><path
       style="fill:#ffffff;stroke:#ffffff;stroke-width:0.2;stroke-linecap:round;stroke-linejoin:round;stroke-dasharray:none;stroke-opacity:1"
       d="m 82.487508,139.39505 c -0.253686,-0.081 -0.421849,-0.2253 -0.530824,-0.45531 l -0.07013,-0.14799 v -2.21457 -2.21457 l 0.07013,-0.14799 c 0.08901,-0.18787 0.217164,-0.31603 0.405039,-0.40504 l 0.148044,-0.0702 1.825151,-0.008 c 1.274142,-0.005 1.854987,9e-4 1.923978,0.0181 0.225549,0.0559 0.3168,0.12418 0.753876,0.5639 0.343166,0.34525 0.435385,0.45132 0.486488,0.55955 l 0.06307,0.13359 v 1.89185 1.89185 l -0.07013,0.14799 c -0.08901,0.18786 -0.217163,0.31601 -0.405039,0.40501 l -0.148044,0.0702 -2.181276,0.005 c -1.718996,0.003 -2.200146,-0.001 -2.270309,-0.0241 z m 0.21145,-1.38417 c 0.01077,-0.97234 0.01243,-1.0022 0.05943,-1.08993 0.06533,-0.12207 0.175911,-0.22839 0.296703,-0.28541 0.09914,-0.0467 0.116079,-0.0473 1.658217,-0.0473 1.269094,0 1.574217,0.006 1.645212,0.0308 0.120628,0.0426 0.276731,0.19245 0.338896,0.32535 l 0.05206,0.1113 2.23e-4,0.97243 c 1.12e-4,0.53484 0.0086,0.97765 0.01899,0.98403 0.04162,0.0258 0.19652,-0.0409 0.273188,-0.11766 0.04484,-0.0449 0.09259,-0.12131 0.106101,-0.17006 0.03521,-0.12676 0.03454,-3.49002 -6.76e-4,-3.63421 -0.02291,-0.0937 -0.06696,-0.14587 -0.428466,-0.50663 -0.428268,-0.42747 -0.468788,-0.45473 -0.676257,-0.45473 h -0.0901 l -0.008,0.58425 c -0.0091,0.65046 -0.01319,0.67182 -0.164552,0.83936 -0.04627,0.0513 -0.124859,0.11494 -0.174663,0.14163 -0.08837,0.0473 -0.11344,0.0487 -1.045757,0.055 -1.081916,0.008 -1.096755,0.006 -1.269122,-0.16228 -0.172915,-0.16825 -0.178101,-0.19155 -0.190655,-0.85688 l -0.01107,-0.58982 -0.205966,-0.008 c -0.113273,-0.005 -0.248134,0.006 -0.299676,0.0188 -0.118657,0.032 -0.249554,0.16073 -0.281947,0.27741 -0.03382,0.12191 -0.0346,4.17 -8.11e-4,4.29162 0.01304,0.047 0.05557,0.12009 0.09447,0.16231 0.06604,0.0717 0.22064,0.14769 0.271031,0.13328 0.01425,-0.005 0.02629,-0.36833 0.03338,-1.00609 z m 3.6503,0.0558 v -0.95876 l -0.06507,-0.0651 -0.06507,-0.065 h -1.494701 -1.494708 l -0.06507,0.065 -0.06507,0.0651 v 0.95876 0.95878 h 1.624829 1.624828 z m -0.879652,-2.7668 c 0.07415,-0.0742 0.08111,-0.13844 0.07374,-0.68133 l -0.0064,-0.47852 h -1.012738 -1.012736 l -0.0059,0.53755 -0.0059,0.53757 0.05802,0.069 0.05802,0.069 h 0.900478 0.90048 z"
       id="path303" /></g></svg>
